#!OML:ASF H:\Not Pregnant\Project 1\Capture day 1\Session 1\non-pregnant.ASF
:FULLY-SPECIFIED
:DEGREES
251
root -4.82933 15.5603 37.2235 186.424 -64.0858 -169.611
lowerback -1.72937 4.31697 4.54872
upperback -7.19282 5.6382 0.501074
thorax -6.13348 2.44411 -2.17748
lowerneck 6.56253 -2.11598 -26.9189
upperneck 8.39256 -11.2938 45.149
head 6.11288 -7.71472 25.8947
rclavicle -2.55974e-014 -2.24627e-014
rhumerus -30.3395 -4.54913 -81.4648
rradius 56.696
rwrist -28.6985
rhand -37.9188 -41.2823
rfingers 7.12502
rthumb -10.9609 -70.9762
lclavicle -2.55974e-014 -2.24627e-014
lhumerus -35.6892 8.33226 64.0005
lradius 45.0114
lwrist 57.3026
lhand -27.4637 -9.6385
lfingers 7.12502
lthumb -0.867902 20.3395
rfemur -19.6395 -15.2027 29.0628
rtibia 56.8879
rfoot -5.70412 7.56014
rtoes -30.9227
lfemur -37.6754 9.0316 -26.3056
ltibia 40.1945
lfoot -18.8757 8.84026
ltoes -5.67786
252
root -4.83746 15.5912 37.2091 186.165 -64.3095 -169.37
lowerback -1.69082 4.21735 4.43371
upperback -7.21691 5.50618 0.511777
thorax -6.20093 2.38308 -2.10484
lowerneck 6.60176 -2.17675 -26.888
upperneck 8.13228 -11.3355 45.2306
head 6.05974 -7.74915 25.9185
rclavicle 4.98794e-014 1.58034e-014
rhumerus -30.4293 -2.98455 -82.1245
rradius 57.3794
rwrist -28.0838
rhand -38.0484 -40.6879
rfingers 7.12502
rthumb -11.0859 -70.3751
lclavicle 4.98794e-014 1.58034e-014
lhumerus -35.5977 7.35275 64.8976
lradius 45.0788
lwrist 56.7829
lhand -27.4704 -9.74534
lfingers 7.12502
lthumb -0.87443 20.2326
rfemur -20.2362 -15.3528 29.2719
rtibia 56.934
rfoot -6.63101 7.45371
rtoes -30.9994
lfemur -37.2259 8.92522 -26.1261
ltibia 39.5242
lfoot -18.6082 8.71531
ltoes -6.051
253
root -4.84488 15.62 37.1952 185.906 -64.562 -169.137
lowerback -1.63362 4.10208 4.31505
upperback -7.24207 5.35448 0.528704
thorax -6.28185 2.31242 -2.02434
lowerneck 6.63688 -2.23665 -26.8698
upperneck 7.87822 -11.3736 45.3026
head 6.00746 -7.78079 25.9389
rclavicle -8.36992e-014 -1.51076e-014
rhumerus -30.5519 -1.40232 -82.7784
rradius 58.0657
rwrist -27.4891
rhand -38.3345 -39.9546
rfingers 7.12502
rthumb -11.3618 -69.6268
lclavicle -8.36992e-014 -1.51076e-014
lhumerus -35.5332 6.38631 65.7956
lradius 45.1636
lwrist 56.3321
lhand -27.4507 -9.82607
lfingers 7.12502
lthumb -0.85539 20.152
rfemur -20.8303 -15.5278 29.4702
rtibia 56.9254
rfoot -7.52035 7.23747
rtoes -31.0437
lfemur -36.7934 8.80252 -25.957
ltibia 38.8907
lfoot -18.3496 8.589
ltoes -6.49011
254
root -4.85164 15.6468 37.1812 185.639 -64.8326 -168.899
lowerback -1.56382 3.9806 4.1889
upperback -7.2668 5.19528 0.553321
thorax -6.37073 2.23869 -1.93193
lowerneck 6.66906 -2.30011 -26.8641
upperneck 7.62747 -11.4154 45.3665
head 5.95908 -7.81364 25.956
rclavicle 3.89381e-014 7.55382e-015
rhumerus -30.7158 0.193245 -83.4268
rradius 58.7656
rwrist -26.9582
rhand -38.7985 -39.1015
rfingers 7.12502
rthumb -11.8093 -68.7486
lclavicle 3.89381e-014 7.55382e-015
lhumerus -35.4805 5.43331 66.7084
lradius 45.2563
lwrist 55.9275
lhand -27.4109 -9.87674
lfingers 7.12502
lthumb -0.816972 20.1014
rfemur -21.4233 -15.7094 29.6648
rtibia 56.8692
rfoot -8.39111 6.87281
rtoes -31.048
lfemur -36.3819 8.67857 -25.7944
ltibia 38.2964
lfoot -18.1105 8.44943
ltoes -6.91603
255
root -4.85766 15.6714 37.1672 185.366 -65.1144 -168.655
lowerback -1.48384 3.86307 4.05861
upperback -7.2949 5.04161 0.574833
thorax -6.46812 2.16776 -1.84081
lowerneck 6.71161 -2.37335 -26.8475
upperneck 7.36638 -11.4699 45.4262
head 5.91013 -7.85269 25.9595
rclavicle 7.59342e-015 1.36167e-014
rhumerus -30.9193 1.75353 -84.055
rradius 59.4676
rwrist -26.4074
rhand -39.2156 -38.2685
rfingers 7.12502
rthumb -12.2116 -67.892
lclavicle 7.59342e-015 1.36167e-014
lhumerus -35.4257 4.45609 67.6424
lradius 45.3461
lwrist 55.557
lhand -27.3682 -9.91305
lfingers 7.12502
lthumb -0.775723 20.0653
rfemur -22.0237 -15.8996 29.8564
rtibia 56.7749
rfoot -9.2724 6.35214
rtoes -31.0217
lfemur -35.9994 8.56307 -25.6384
ltibia 37.7446
lfoot -17.8908 8.29505
ltoes -7.34632
256
root -4.86386 15.6934 37.155 185.098 -65.4342 -168.408
lowerback -1.40449 3.73795 3.95088
upperback -7.32729 4.87764 0.593206
thorax -6.56767 2.09024 -1.76442
lowerneck 6.75906 -2.45347 -26.8344
upperneck 7.10055 -11.5323 45.4783
head 5.86207 -7.89528 25.9541
rclavicle 5.94463e-014 9.79014e-015
rhumerus -31.1535 3.21305 -84.6542
rradius 60.1669
rwrist -25.7762
rhand -39.5274 -37.4975
rfingers 7.12502
rthumb -12.5121 -67.1029
lclavicle 5.94463e-014 9.79014e-015
lhumerus -35.3757 3.47014 68.6064
lradius 45.4262
lwrist 55.2182
lhand -27.3392 -9.95524
lfingers 7.12502
lthumb -0.747698 20.0232
rfemur -22.6487 -16.1349 30.0332
rtibia 56.6488
rfoot -10.1723 5.69994
rtoes -30.9138
lfemur -35.6571 8.41309 -25.4956
ltibia 37.238
lfoot -17.6861 8.1362
ltoes -7.74978
257
root -4.86968 15.7137 37.1424 184.821 -65.762 -168.149
lowerback -1.3277 3.61418 3.83175
upperback -7.35742 4.71512 0.618618
thorax -6.66413 2.01466 -1.67353
lowerneck 6.80098 -2.54192 -26.8287
upperneck 6.83147 -11.6032 45.5237
head 5.81901 -7.94111 25.9423
rclavicle -1.68168e-014 -1.28713e-014
rhumerus -31.4083 4.55287 -85.2156
rradius 60.8602
rwrist -25.0461
rhand -39.6678 -36.8116
rfingers 7.12502
rthumb -12.6475 -66.4086
lclavicle -1.68168e-014 -1.28713e-014
lhumerus -35.3227 2.46974 69.6098
lradius 45.4894
lwrist 54.8851
lhand -27.3459 -9.99294
lfingers 7.12502
lthumb -0.754183 19.9855
rfemur -23.2808 -16.3601 30.2042
rtibia 56.4889
rfoot -11.1002 4.91289
rtoes -30.6906
lfemur -35.3466 8.28165 -25.359
ltibia 36.7769
lfoot -17.5002 7.96181
ltoes -8.17046
258
root -4.87522 15.7319 37.1292 184.536 -66.0939 -167.885
lowerback -1.25372 3.49045 3.69478
upperback -7.38241 4.55231 0.653692
thorax -6.75484 1.94083 -1.56172
lowerneck 6.83362 -2.63793 -26.8334
upperneck 6.56174 -11.6823 45.5629
head 5.78283 -7.98992 25.9267
rclavicle -1.13394e-014 -3.78933e-015
rhumerus -31.6735 5.79061 -85.738
rradius 61.5472
rwrist -24.267
rhand -39.6909 -36.1842
rfingers 7.12502
rthumb -12.6698 -65.7799
lclavicle -1.13394e-014 -3.78933e-015
lhumerus -35.265 1.46445 70.6538
lradius 45.5194
lwrist 54.5302
lhand -27.3901 -10.0499
lfingers 7.12502
lthumb -0.796875 19.9283
rfemur -23.9109 -16.5764 30.3641
rtibia 56.2909
rfoot -12.0527 4.02284
rtoes -30.421
lfemur -35.0622 8.17465 -25.2293
ltibia 36.3602
lfoot -17.3378 7.76722
ltoes -8.58874
259
root -4.88114 15.7478 37.1186 184.25 -66.4801 -167.609
lowerback -1.18655 3.35366 3.59617
upperback -7.40922 4.372 0.685549
thorax -6.84071 1.85605 -1.47262
lowerneck 6.85961 -2.74105 -26.8461
upperneck 6.2907 -11.7679 45.594
head 5.75115 -8.04055 25.9037
rclavicle 1.15612e-014 1.96642e-014
rhumerus -31.9532 6.9426 -86.2335
rradius 62.2278
rwrist -23.4867
rhand -39.6387 -35.5628
rfingers 7.12502
rthumb -12.6195 -65.1616
lclavicle 1.15612e-014 1.96642e-014
lhumerus -35.2064 0.439683 71.7349
lradius 45.5177
lwrist 54.1486
lhand -27.4791 -10.1215
lfingers 7.12502
lthumb -0.882808 19.8564
rfemur -24.5625 -16.8346 30.5083
rtibia 56.0532
rfoot -13.0063 3.08318
rtoes -30.0968
lfemur -34.821 8.01149 -25.1111
ltibia 35.9848
lfoot -17.1815 7.577
ltoes -8.98929
260
root -4.88671 15.7624 37.1061 183.956 -66.8489 -167.325
lowerback -1.12775 3.22272 3.46815
upperback -7.42891 4.19878 0.730452
thorax -6.91598 1.77764 -1.35262
lowerneck 6.86732 -2.84922 -26.8843
upperneck 6.02924 -11.8619 45.6221
head 5.73417 -8.09515 25.8901
rclavicle 7.35673e-014 2.12078e-014
rhumerus -32.2465 8.07313 -86.711
rradius 62.9108
rwrist -22.8096
rhand -39.5847 -34.9157
rfingers 7.12502
rthumb -12.5675 -64.5177
lclavicle 7.35673e-014 2.12078e-014
lhumerus -35.1388 -0.579139 72.8531
lradius 45.473
lwrist 53.723
lhand -27.6131 -10.2267
lfingers 7.12502
lthumb -1.01221 19.7506
rfemur -25.1954 -17.0413 30.6487
rtibia 55.7634
rfoot -13.9474 2.0886
rtoes -29.8348
lfemur -34.5999 7.89637 -24.9947
ltibia 35.6478
lfoot -17.0571 7.36115
ltoes -9.32573
261
root -4.89216 15.775 37.0942 183.661 -67.2372 -167.04
lowerback -1.06684 3.09454 3.34807
upperback -7.44896 4.02924 0.769648
thorax -6.99085 1.70059 -1.2426
lowerneck 6.88151 -2.9692 -26.9187
upperneck 5.75606 -11.9719 45.6482
head 5.72017 -8.15805 25.8678
rclavicle -4.10055e-014 -1.97542e-014
rhumerus -32.5676 9.19889 -87.1838
rradius 63.6061
rwrist -22.2939
rhand -39.599 -34.2403
rfingers 7.12502
rthumb -12.5812 -63.8415
lclavicle -4.10055e-014 -1.97542e-014
lhumerus -35.0551 -1.6014 73.9959
lradius 45.3832
lwrist 53.2345
lhand -27.7757 -10.3435
lfingers 7.12502
lthumb -1.16931 19.6331
rfemur -25.8227 -17.2413 30.7726
rtibia 55.4205
rfoot -14.8411 1.11284
rtoes -29.5855
lfemur -34.4039 7.76452 -24.8868
ltibia 35.3448
lfoot -16.9614 7.1354
ltoes -9.48633
262
root -4.89722 15.7863 37.0817 183.363 -67.6246 -166.751
lowerback -1.00613 2.96912 3.21415
upperback -7.466 3.86314 0.814784
thorax -7.06267 1.62665 -1.1182
lowerneck 6.89468 -3.09583 -26.9649
upperneck 5.47836 -12.0894 45.6695
head 5.70981 -8.22435 25.8428
rclavicle -5.0294e-014 -9.93923e-016
rhumerus -32.9217 10.3596 -87.6677
rradius 64.3178
rwrist -21.9811
rhand -39.7884 -33.4937
rfingers 7.12502
rthumb -12.7638 -63.0835
lclavicle -5.0294e-014 -9.93923e-016
lhumerus -34.9555 -2.56757 75.1517
lradius 45.2431
lwrist 52.6434
lhand -27.9511 -10.4654
lfingers 7.12502
lthumb -1.33871 19.5101
rfemur -26.4327 -17.4019 30.8834
rtibia 55.0207
rfoot -15.6689 0.174241
rtoes -29.3701
lfemur -34.225 7.64093 -24.7828
ltibia 35.0699
lfoot -16.8873 6.90332
ltoes -9.56145
263
root -4.90149 15.7969 37.0664 183.062 -67.9736 -166.465
lowerback -0.945555 2.86644 3.02788
upperback -7.47857 3.72641 0.866838
thorax -7.13116 1.57126 -0.958316
lowerneck 6.92338 -3.23634 -27.0045
upperneck 5.17604 -12.2234 45.6912
head 5.6968 -8.29991 25.8079
rclavicle 9.26105e-014 2.47487e-014
rhumerus -33.3096 11.528 -88.1462
rradius 65.0385
rwrist -21.8047
rhand -40.083 -32.6921
rfingers 7.12502
rthumb -13.0478 -62.264
lclavicle 9.26105e-014 2.47487e-014
lhumerus -34.8259 -3.46979 76.3136
lradius 45.0474
lwrist 51.9338
lhand -28.1147 -10.6085
lfingers 7.12502
lthumb -1.49668 19.366
rfemur -27.0081 -17.4698 30.9806
rtibia 54.5642
rfoot -16.4234 -0.71166
rtoes -29.1542
lfemur -34.0517 7.5756 -24.6782
ltibia 34.8195
lfoot -16.8516 6.64438
ltoes -9.4341
264
root -4.90554 15.8065 37.0516 182.776 -68.335 -166.197
lowerback -0.878444 2.76771 2.84052
upperback -7.49174 3.59468 0.909823
thorax -7.20243 1.51835 -0.807356
lowerneck 6.96796 -3.38703 -27.044
upperneck 4.85065 -12.3717 45.7185
head 5.6821 -8.38524 25.7735
rclavicle 3.76926e-014 1.85367e-014
rhumerus -33.7235 12.6634 -88.6297
rradius 65.7468
rwrist -21.715
rhand -40.4828 -31.7952
rfingers 7.12502
rthumb -13.4332 -61.3421
lclavicle 3.76926e-014 1.85367e-014
lhumerus -34.6721 -4.26633 77.4567
lradius 44.7942
lwrist 51.0687
lhand -28.2439 -10.782
lfingers 7.12502
lthumb -1.62152 19.1916
rfemur -27.5698 -17.5019 31.0417
rtibia 54.0632
rfoot -17.104 -1.49978
rtoes -28.8802
lfemur -33.8898 7.48533 -24.5847
ltibia 34.5901
lfoot -16.8361 6.38296
ltoes -9.10459
